<?xml version="1.0" standalone="no"?>
<!DOCTYPE svg PUBLIC "-//W3C//DTD SVG 20010904//EN"
 "http://www.w3.org/TR/2001/REC-SVG-20010904/DTD/svg10.dtd">
<svg version="1.0" xmlns="http://www.w3.org/2000/svg"
 width="1288.000000pt" height="1288.000000pt" viewBox="0 0 1288.000000 1288.000000"
 preserveAspectRatio="xMidYMid meet">
<metadata>
Created by potrace 1.14, written by Peter Selinger 2001-2017
</metadata>
<g transform="translate(0.000000,1288.000000) scale(0.100000,-0.100000)"
fill="#000000" stroke="none">
<path d="M4059 10756 c-2 -2 -49 -6 -104 -10 -55 -3 -111 -8 -124 -11 -13 -2
-41 -5 -62 -7 -22 -1 -39 -4 -39 -7 0 -4 -14 -6 -30 -5 -17 0 -63 -5 -103 -13
-40 -8 -88 -16 -107 -19 -28 -4 -103 -21 -265 -58 -134 -31 -502 -157 -577
-197 -21 -11 -39 -19 -40 -19 -2 1 -16 -3 -31 -9 -16 -6 -31 -11 -34 -11 -3 0
-18 -9 -34 -21 -16 -11 -29 -18 -29 -15 0 3 -20 -6 -45 -20 -25 -13 -45 -21
-45 -17 0 4 -4 3 -8 -3 -4 -6 -41 -27 -82 -48 -41 -21 -122 -66 -180 -101 -58
-35 -126 -76 -152 -92 -27 -15 -48 -31 -48 -35 0 -5 -5 -8 -11 -8 -8 0 -47
-26 -114 -77 -6 -5 -46 -35 -90 -67 -44 -33 -82 -62 -85 -65 -3 -3 -30 -26
-60 -51 -77 -63 -97 -80 -140 -120 -21 -19 -53 -49 -71 -66 -52 -48 -248 -253
-304 -318 -49 -58 -181 -226 -220 -280 -11 -15 -35 -48 -52 -71 -18 -24 -33
-46 -33 -49 0 -8 -64 -101 -72 -104 -5 -2 -8 -7 -8 -11 0 -9 -97 -172 -111
-185 -5 -6 -9 -18 -9 -27 0 -10 -4 -19 -8 -21 -10 -4 -168 -322 -187 -378 -1
-3 -7 -18 -14 -35 -39 -90 -124 -324 -137 -375 -2 -8 -22 -79 -43 -157 -22
-79 -42 -155 -44 -170 -3 -16 -10 -48 -16 -73 -5 -25 -13 -61 -16 -80 -3 -19
-10 -60 -15 -90 -5 -30 -12 -73 -15 -95 -3 -22 -8 -53 -10 -70 -5 -30 -7 -42
-22 -210 -4 -49 -8 -209 -7 -355 1 -240 3 -308 19 -450 2 -25 7 -69 10 -99 3
-30 7 -57 9 -60 2 -3 7 -31 11 -61 10 -75 13 -95 15 -95 1 0 3 -13 5 -30 7
-50 12 -77 29 -140 8 -33 18 -78 22 -100 3 -22 10 -42 15 -43 5 -2 7 -7 4 -12
-4 -7 24 -115 42 -160 3 -8 7 -19 8 -25 0 -5 4 -17 7 -25 3 -8 18 -53 33 -100
15 -47 34 -98 41 -115 24 -58 65 -160 67 -170 9 -38 213 -447 229 -456 5 -3 9
-8 8 -10 -5 -10 171 -287 243 -384 18 -23 39 -52 47 -65 8 -12 22 -30 30 -39
9 -9 33 -38 55 -66 61 -76 67 -84 110 -132 22 -25 48 -55 58 -67 29 -33 237
-244 237 -240 0 3 15 -10 33 -28 40 -40 109 -101 166 -148 24 -19 48 -40 55
-46 6 -6 58 -45 116 -88 58 -42 112 -83 120 -89 14 -11 141 -93 256 -165 28
-18 56 -32 62 -32 7 0 12 -4 12 -8 0 -5 78 -47 172 -94 201 -100 208 -103 353
-161 61 -24 119 -48 130 -52 11 -5 22 -9 25 -10 3 0 64 -19 135 -42 72 -23
142 -44 157 -47 15 -2 32 -7 38 -11 5 -3 18 -8 27 -10 10 -2 61 -13 113 -25
52 -12 104 -24 115 -26 11 -2 31 -5 45 -8 26 -5 115 -20 185 -31 55 -9 90 -13
165 -20 36 -3 79 -9 95 -12 36 -6 1655 -17 1655 -10 0 5 -387 394 -424 425
-14 12 -31 22 -36 22 -6 0 -10 3 -10 8 0 8 -30 22 -113 54 -57 22 -77 23 -692
33 -296 5 -420 10 -420 15 0 1 -13 3 -30 5 -49 4 -139 16 -155 20 -8 2 -33 7
-55 10 -23 3 -50 7 -60 10 -66 14 -172 37 -186 40 -8 2 -39 10 -67 19 -29 8
-55 15 -57 15 -3 0 -30 7 -60 16 -30 8 -58 16 -62 16 -5 0 -13 5 -18 9 -6 5
-22 11 -35 14 -38 7 -183 62 -315 119 -140 60 -426 211 -433 229 -2 4 -8 8
-13 8 -5 0 -35 17 -66 37 -32 21 -65 42 -74 48 -34 20 -144 99 -159 112 -8 7
-53 43 -100 80 -47 37 -103 83 -125 102 -76 67 -330 326 -388 396 -32 39 -66
79 -75 91 -90 107 -257 356 -349 519 -62 111 -173 344 -173 364 0 6 -5 11 -12
11 -6 0 -9 3 -5 6 3 3 -5 30 -18 60 -13 30 -21 54 -18 54 3 0 1 6 -4 13 -10
12 -53 135 -53 150 0 4 -7 21 -15 37 -8 16 -15 31 -15 32 1 2 -1 10 -4 18 -2
8 -8 29 -12 45 -4 17 -9 37 -11 45 -2 8 -5 21 -5 28 -1 6 -5 12 -10 12 -5 0
-7 4 -4 9 3 5 -1 30 -8 57 -8 27 -17 63 -20 79 -10 53 -25 129 -29 150 -6 28
-17 93 -22 135 -2 19 -7 55 -10 80 -3 25 -8 68 -10 95 -2 28 -7 88 -10 135
-12 152 -7 453 10 605 12 111 17 150 31 230 9 50 17 101 19 115 3 14 7 36 10
50 3 14 8 38 11 54 2 16 7 32 9 36 2 4 7 20 9 36 11 60 15 74 21 85 4 5 8 20
9 32 6 48 120 382 138 401 4 6 8 16 8 22 0 7 16 47 35 88 19 42 35 78 35 81 1
6 99 196 140 270 19 33 68 112 109 175 42 63 78 120 80 125 2 6 7 12 10 15 3
3 39 49 78 102 164 220 386 451 623 647 40 33 42 34 105 81 33 25 62 47 65 50
32 36 471 300 498 300 6 0 12 5 12 10 0 6 6 10 13 10 6 0 34 12 61 26 27 14
54 27 60 28 6 2 36 14 66 28 71 33 237 98 250 98 6 0 18 4 28 10 18 10 132 44
267 80 79 22 97 26 145 35 14 3 36 7 50 10 14 4 34 8 45 10 11 1 38 6 60 10
22 4 49 9 60 10 11 1 40 5 65 9 58 9 104 14 220 23 133 11 4806 10 4910 -1 47
-5 101 -10 120 -12 19 -1 35 -3 35 -4 0 -1 18 -4 40 -6 34 -4 94 -14 180 -29
11 -2 43 -9 70 -14 28 -6 61 -14 75 -17 50 -10 176 -44 238 -63 34 -11 62 -16
62 -13 0 4 4 3 8 -3 4 -5 41 -21 82 -35 116 -38 179 -63 353 -144 53 -25 101
-46 105 -47 4 -1 24 -13 45 -26 20 -13 37 -20 37 -16 0 5 4 3 8 -3 4 -6 32
-24 62 -40 30 -16 56 -32 58 -36 2 -5 8 -8 14 -8 5 0 29 -13 53 -30 24 -16 48
-30 53 -30 6 0 12 -3 14 -7 2 -5 39 -32 83 -62 44 -30 92 -64 106 -75 14 -12
36 -28 49 -36 12 -8 28 -20 34 -25 6 -6 36 -30 66 -55 30 -25 68 -56 85 -70
43 -36 315 -308 356 -355 18 -22 52 -62 74 -89 22 -27 45 -54 50 -60 6 -6 22
-27 35 -46 13 -19 27 -37 30 -40 25 -20 230 -336 267 -410 9 -19 20 -37 23
-40 23 -20 216 -451 250 -560 5 -14 22 -70 40 -125 17 -55 33 -109 35 -119 3
-10 9 -33 14 -50 6 -17 13 -42 15 -56 3 -14 12 -55 20 -91 16 -68 18 -80 35
-177 45 -249 64 -597 47 -862 -11 -162 -19 -252 -31 -320 -2 -14 -7 -43 -10
-65 -3 -22 -17 -94 -31 -160 -31 -149 -29 -138 -48 -210 -9 -33 -19 -69 -21
-80 -3 -11 -16 -54 -30 -95 -14 -41 -25 -76 -24 -78 4 -12 -112 -291 -180
-432 -123 -255 -318 -559 -481 -751 -25 -29 -61 -71 -80 -93 -45 -53 -303
-311 -358 -358 -24 -20 -59 -49 -79 -65 -20 -15 -46 -37 -59 -48 -12 -11 -32
-27 -45 -35 -12 -8 -34 -24 -48 -36 -97 -76 -371 -248 -486 -304 -27 -14 -52
-27 -55 -31 -4 -4 -69 -34 -287 -130 -23 -11 -48 -19 -55 -19 -8 0 -18 -4 -23
-8 -6 -5 -41 -19 -80 -31 -38 -12 -79 -26 -90 -31 -20 -9 -101 -33 -120 -36
-5 0 -17 -4 -25 -7 -15 -6 -115 -32 -160 -41 -14 -3 -56 -12 -93 -20 -38 -9
-85 -17 -105 -20 -20 -3 -46 -7 -57 -9 -20 -5 -85 -14 -165 -23 -25 -3 -63 -8
-85 -11 -22 -3 -485 -7 -1030 -9 -845 -3 -1001 -2 -1065 11 -41 8 -82 18 -90
21 -8 4 -19 8 -25 9 -15 4 -116 52 -150 72 -68 40 -123 91 -390 358 -154 154
-296 291 -314 305 -19 14 -40 31 -47 38 -7 6 -17 12 -22 12 -6 0 -12 3 -14 8
-5 11 -95 66 -173 105 -88 44 -250 99 -330 112 -22 4 -51 9 -65 12 -25 5 -230
9 -825 17 -176 2 -340 7 -365 9 -64 7 -128 17 -185 27 -27 5 -65 12 -84 15
-19 3 -37 8 -41 10 -4 2 -22 7 -41 10 -126 21 -403 123 -584 216 -157 80 -355
205 -432 273 -28 25 -42 36 -46 36 -21 0 -297 276 -380 380 -38 47 -74 92 -81
100 -6 9 -27 38 -46 65 -19 28 -37 52 -42 53 -4 2 -8 7 -8 12 0 9 -61 111 -71
120 -3 3 -38 68 -76 146 -99 198 -175 404 -223 609 -21 89 -26 117 -34 185 -2
19 -7 42 -10 50 -10 30 -18 149 -21 345 -3 179 2 274 21 400 3 22 7 54 9 70 2
17 6 42 9 58 3 15 8 37 10 50 6 35 27 120 33 137 4 8 7 20 7 25 4 31 20 82 28
93 6 6 8 12 4 12 -6 0 53 170 80 230 9 19 23 51 31 70 50 115 158 309 232 415
39 56 113 157 121 165 3 3 25 30 50 60 55 67 249 262 309 310 24 19 48 40 55
45 6 6 43 34 81 63 39 28 75 55 80 60 35 27 206 129 295 174 196 101 441 192
603 223 9 2 20 6 25 8 4 3 25 8 47 11 22 3 63 10 90 16 62 11 109 18 200 28
89 9 4716 9 4810 0 39 -4 81 -9 95 -12 14 -2 43 -7 65 -10 22 -3 50 -7 61 -10
12 -2 37 -7 55 -10 19 -3 48 -10 66 -15 17 -5 34 -7 37 -3 3 3 6 1 6 -4 0 -5
11 -10 25 -10 33 -2 289 -85 293 -96 2 -4 10 -8 18 -8 14 0 76 -26 147 -61 22
-10 45 -19 53 -19 8 0 14 -3 14 -7 0 -5 19 -17 43 -28 62 -29 161 -87 165 -97
2 -4 8 -8 13 -8 20 0 237 -157 339 -245 43 -37 246 -241 280 -281 13 -16 40
-49 59 -73 18 -25 38 -50 43 -55 16 -18 134 -190 141 -206 4 -8 18 -33 32 -55
38 -60 146 -279 182 -370 33 -81 89 -248 97 -288 3 -12 12 -49 21 -82 18 -67
50 -254 62 -360 4 -38 8 -162 8 -275 0 -188 -4 -262 -21 -366 -3 -21 -7 -52
-9 -68 -2 -17 -4 -31 -5 -31 -1 0 -3 -9 -5 -20 -7 -50 -17 -101 -21 -106 -2
-3 -6 -21 -9 -40 -5 -30 -28 -111 -58 -209 -6 -19 -11 -37 -12 -40 -2 -12 -60
-159 -84 -210 -13 -30 -25 -57 -26 -60 0 -3 -23 -48 -50 -100 -28 -52 -52 -99
-54 -105 -2 -5 -7 -12 -11 -15 -4 -3 -23 -34 -44 -69 -37 -64 -173 -251 -237
-326 -53 -61 -250 -257 -293 -290 -21 -16 -46 -37 -54 -45 -14 -14 -127 -99
-168 -128 -60 -40 -132 -86 -159 -99 -16 -9 -32 -19 -35 -22 -5 -6 -239 -125
-250 -127 -3 0 -16 -5 -30 -11 -137 -58 -326 -121 -420 -139 -14 -3 -33 -7
-42 -10 -19 -6 -41 -10 -89 -18 -19 -3 -54 -9 -79 -14 -25 -5 -56 -8 -68 -7
-12 1 -22 -1 -22 -4 0 -3 -28 -8 -63 -11 -97 -7 -1377 -6 -1422 2 -213 35
-354 126 -596 384 -63 68 -393 389 -410 399 -9 6 -50 33 -90 61 -41 28 -89 57
-106 65 -18 8 -33 17 -33 21 0 5 -7 8 -15 8 -9 0 -34 9 -55 20 -40 20 -170 63
-225 74 -53 11 -74 16 -97 22 -13 4 -216 8 -453 10 -939 8 -1241 12 -1265 17
-14 3 -43 8 -65 11 -40 6 -61 12 -170 42 -33 10 -69 19 -79 21 -11 2 -24 7
-30 12 -6 5 -22 12 -35 16 -61 19 -272 130 -279 147 -2 4 -8 8 -14 8 -32 0
-276 218 -348 310 -19 25 -37 47 -41 50 -3 3 -33 46 -66 95 -63 94 -128 224
-174 345 -8 19 -14 40 -16 45 -1 6 -11 41 -22 79 -11 38 -23 86 -26 106 -3 19
-8 47 -11 60 -18 86 -25 327 -12 425 16 127 19 145 35 210 9 40 8 34 23 85 7
25 14 50 16 55 13 60 146 336 166 343 4 2 8 8 8 14 0 10 56 91 106 152 87 108
246 253 354 322 25 16 47 32 50 35 10 12 205 108 270 132 105 40 222 72 295
82 17 2 30 4 30 5 0 16 4632 23 4740 8 112 -16 211 -37 248 -53 18 -7 34 -13
37 -13 14 -1 66 -16 75 -22 6 -4 21 -11 35 -15 63 -18 253 -122 322 -174 14
-12 31 -21 36 -21 6 0 12 -3 14 -7 2 -5 30 -30 63 -58 77 -65 150 -138 200
-200 22 -28 43 -52 46 -55 12 -11 118 -170 113 -170 -3 0 4 -12 14 -28 33 -45
126 -260 137 -312 2 -8 10 -40 19 -71 9 -31 19 -71 21 -90 3 -19 7 -45 10 -59
22 -96 25 -328 7 -455 -7 -55 -15 -113 -17 -130 -2 -16 -4 -31 -5 -32 -2 -2
-3 -6 -4 -10 -62 -236 -145 -416 -274 -593 -62 -84 -71 -94 -163 -188 -108
-111 -251 -216 -399 -293 -70 -37 -173 -79 -215 -89 -5 -1 -18 -7 -29 -12 -22
-12 -165 -47 -221 -54 -22 -3 -65 -9 -95 -14 -76 -11 -604 -11 -665 1 -130 24
-250 77 -350 152 -33 25 -180 166 -327 314 -310 310 -305 306 -473 416 -104
68 -316 147 -438 163 -15 2 -36 8 -47 14 -12 6 -403 10 -1128 10 -944 0 -1117
3 -1158 15 -27 8 -51 15 -54 16 -3 1 -15 5 -28 10 -13 5 -26 9 -28 9 -12 0
-122 81 -152 111 -74 76 -140 208 -145 290 -1 21 -5 39 -8 39 -6 0 -3 69 5
136 19 152 142 321 287 395 126 63 -31 60 2421 56 2210 -3 2234 -3 2283 -23
28 -11 61 -26 75 -34 14 -8 28 -14 31 -15 13 0 118 -91 119 -102 0 -7 4 -13
10 -13 5 0 25 -24 43 -53 111 -174 118 -384 19 -565 -29 -54 -164 -192 -187
-192 -8 0 -15 -4 -15 -8 0 -10 -48 -29 -130 -52 -59 -17 -115 -19 -629 -19
-311 -1 -566 -3 -568 -5 -5 -4 387 -397 428 -427 41 -31 119 -71 173 -89 50
-16 93 -19 306 -19 261 -1 334 6 459 44 340 101 617 374 720 709 39 127 46
183 45 351 -2 132 -10 184 -49 315 -21 71 -91 215 -121 251 -8 8 -14 19 -14
23 0 4 -6 13 -12 21 -7 7 -28 31 -47 55 -46 56 -88 98 -140 140 -24 19 -48 40
-55 45 -21 20 -134 85 -190 110 -118 52 -189 71 -346 90 -19 3 -912 4 -1985 4
-1072 0 -1959 0 -1970 0 -203 1 -497 -1 -520 -3 -133 -14 -246 -44 -350 -91
-33 -16 -63 -27 -67 -27 -5 1 -8 -3 -8 -8 0 -6 -4 -10 -10 -10 -18 0 -155 -99
-210 -152 -62 -61 -123 -134 -161 -193 -68 -106 -79 -125 -74 -125 3 0 -4 -18
-15 -39 -24 -48 -68 -196 -78 -265 -21 -149 -4 -358 40 -496 38 -119 112 -258
180 -340 45 -54 132 -142 168 -170 18 -14 38 -31 45 -37 8 -7 16 -13 20 -13 3
0 21 -11 38 -24 101 -76 323 -150 482 -160 39 -3 70 -5 70 -6 0 0 475 -2 1055
-3 580 -2 1073 -7 1095 -11 22 -5 74 -21 115 -37 153 -58 186 -85 500 -396
162 -161 309 -304 325 -319 83 -73 346 -225 412 -237 10 -2 25 -7 33 -10 47
-18 91 -28 100 -22 5 3 10 1 10 -6 0 -7 3 -10 6 -6 3 3 18 1 33 -4 48 -19 144
-24 471 -24 326 0 442 7 550 31 14 3 36 8 50 10 135 24 498 154 521 187 3 4
12 9 20 11 18 2 97 48 183 105 38 25 76 51 85 56 9 6 18 13 21 16 3 3 14 12
26 20 47 32 122 99 213 190 99 99 102 103 161 179 19 25 38 47 41 50 13 12
129 190 155 240 16 30 33 58 37 61 5 3 8 8 7 10 -1 2 17 44 39 92 23 49 41 95
41 103 0 8 5 14 10 14 6 0 9 3 8 8 -2 6 15 65 29 102 4 8 7 18 8 23 2 4 3 8 5
10 1 1 3 9 5 17 1 8 8 35 16 60 7 25 14 54 16 65 2 11 10 52 18 90 8 39 17 97
21 130 3 33 8 74 10 90 5 42 5 322 0 370 -11 103 -29 219 -42 275 -22 96 -43
173 -56 210 -3 8 -16 44 -28 80 -31 87 -139 310 -189 388 -23 34 -41 67 -41
72 0 4 -3 10 -7 12 -5 2 -35 39 -68 83 -76 101 -102 131 -201 229 -102 103
-184 172 -294 248 -127 88 -294 175 -465 243 -46 18 -263 82 -300 88 -16 3
-41 8 -55 11 -31 7 -75 13 -160 23 -83 10 -4685 10 -4765 1 -33 -4 -69 -9 -80
-12 -29 -5 -108 -19 -125 -21 -28 -4 -185 -46 -205 -55 -28 -12 -70 -24 -71
-19 0 2 -7 -1 -15 -7 -8 -6 -32 -17 -54 -24 -149 -48 -531 -283 -602 -370 -7
-8 -13 -12 -13 -8 0 9 -195 -187 -236 -238 -18 -22 -43 -52 -56 -69 -14 -16
-46 -61 -71 -100 -26 -38 -50 -75 -54 -80 -34 -47 -171 -321 -178 -354 -2 -12
-7 -27 -12 -34 -4 -6 -8 -16 -9 -22 -1 -5 -11 -35 -22 -65 -10 -30 -20 -58
-21 -62 0 -5 -1 -9 -2 -10 0 -2 -2 -10 -4 -18 -2 -8 -9 -33 -15 -55 -6 -22
-13 -55 -15 -74 -3 -18 -7 -36 -9 -40 -3 -4 -8 -34 -11 -66 -4 -33 -9 -63 -11
-66 -5 -9 -17 -204 -17 -279 0 -110 15 -291 29 -355 4 -16 8 -43 10 -60 1 -16
15 -73 29 -125 14 -52 27 -100 29 -107 1 -7 5 -16 9 -19 4 -4 7 -14 7 -21 0
-38 124 -312 192 -423 37 -61 118 -182 127 -190 4 -3 19 -23 36 -45 37 -50 46
-60 153 -171 70 -73 166 -156 277 -242 24 -18 152 -100 204 -129 84 -48 243
-123 261 -123 6 0 18 -4 28 -9 62 -31 259 -88 372 -107 14 -2 39 -6 56 -9 16
-3 57 -8 90 -11 32 -3 77 -7 99 -9 22 -2 375 -5 785 -6 590 -1 758 -4 810 -15
86 -18 212 -69 280 -113 30 -19 181 -161 335 -314 297 -297 345 -341 440 -405
111 -75 305 -169 319 -154 3 3 6 1 6 -5 0 -5 6 -10 13 -10 6 0 38 -8 71 -17
32 -10 71 -19 87 -22 16 -2 44 -6 62 -9 68 -12 139 -13 712 -13 654 -1 790 3
903 23 15 2 52 7 82 10 30 3 71 10 90 15 19 5 51 11 70 15 33 5 61 11 105 20
11 2 45 11 75 19 30 9 66 18 80 22 14 3 32 8 40 12 8 3 17 6 20 7 3 0 37 12
75 25 39 13 72 25 75 25 3 1 14 5 25 10 244 98 363 158 583 290 37 23 78 50
90 62 7 7 17 13 21 13 4 0 19 9 32 20 37 31 42 34 79 60 145 100 421 368 563
545 94 117 221 300 278 400 18 33 44 78 56 100 60 105 179 371 189 424 4 17
10 31 15 31 5 0 8 3 7 8 -2 9 13 63 21 77 3 6 7 16 8 23 5 19 9 36 16 52 19
51 77 304 82 363 2 20 6 41 9 45 2 4 7 35 11 67 3 33 8 67 10 75 11 42 19 238
17 420 -2 202 -4 241 -17 337 -4 26 -8 62 -10 78 -1 17 -6 48 -10 70 -4 22 -9
49 -10 60 -8 43 -44 205 -60 261 -38 139 -45 160 -85 270 -44 120 -41 113 -99
237 -23 48 -41 89 -41 91 0 17 -189 339 -202 344 -5 2 -8 8 -8 14 0 5 -27 46
-60 90 -33 43 -60 81 -60 84 0 3 -26 35 -55 68 -6 6 -30 36 -55 66 -52 65
-335 350 -347 350 -4 0 -24 15 -43 33 -71 66 -363 277 -384 277 -3 0 -24 13
-48 29 -71 48 -352 187 -370 183 -5 -1 -8 3 -8 10 0 6 -3 8 -7 5 -3 -4 -11 -3
-17 2 -6 5 -29 14 -51 21 -22 7 -44 16 -50 20 -11 8 -153 52 -157 49 -2 -2
-13 3 -26 10 -13 7 -31 14 -40 16 -9 2 -45 11 -79 20 -96 25 -95 25 -278 59
-16 3 -39 8 -50 10 -11 2 -47 7 -80 10 -33 4 -73 9 -90 11 -16 3 -95 7 -175
10 -80 2 -146 5 -147 5 -4 1 -172 1 -178 0 -6 -1 -214 -1 -217 0 -13 4 -228 4
-228 0 0 -3 -60 -3 -132 0 -73 3 -184 3 -246 0 -63 -3 -115 -3 -117 0 -2 3
-56 3 -120 0 -64 -3 -118 -4 -120 -2 -2 2 -106 3 -231 2 -126 -1 -236 -1 -244
-1 -8 0 -134 0 -278 0 -145 1 -268 -1 -272 -4 -5 -3 -11 -2 -13 2 -3 5 -58 6
-122 3 -64 -3 -118 -4 -120 -2 -2 2 -106 3 -231 2 -126 -1 -236 -1 -244 -1
-151 0 -1210 0 -1250 0 -30 -1 -59 0 -65 1 -5 1 -12 1 -15 0 -6 -2 -53 -7
-140 -14 -100 -9 -166 -17 -245 -32 -10 -2 -37 -6 -59 -10 -22 -3 -43 -7 -47
-10 -3 -2 -21 -6 -40 -8 -29 -4 -87 -19 -204 -52 -11 -3 -24 -6 -30 -8 -42
-11 -223 -73 -250 -86 -11 -5 -49 -21 -85 -36 -67 -27 -248 -115 -312 -153
-21 -11 -53 -30 -72 -40 -56 -32 -151 -95 -154 -103 -2 -5 -8 -8 -14 -8 -10 0
-205 -143 -223 -164 -5 -6 -32 -29 -60 -51 -117 -94 -355 -346 -472 -500 -53
-69 -153 -214 -153 -221 0 -1 -13 -22 -29 -46 -44 -65 -201 -365 -201 -383 0
-2 -11 -28 -24 -57 -71 -154 -174 -501 -201 -673 -1 -11 -5 -33 -8 -50 -9 -48
-21 -139 -33 -260 -14 -137 -7 -536 11 -655 7 -44 15 -106 20 -145 6 -52 63
-309 75 -340 6 -16 12 -32 12 -35 3 -29 70 -224 115 -335 39 -96 114 -252 175
-365 67 -123 228 -359 303 -444 6 -6 30 -36 55 -66 99 -121 321 -334 464 -445
21 -16 44 -34 50 -40 45 -39 235 -163 366 -238 126 -72 440 -214 440 -199 0 4
4 2 8 -3 6 -9 117 -50 161 -60 9 -2 48 -13 86 -25 67 -20 177 -47 220 -54 11
-2 34 -6 50 -10 17 -3 44 -8 60 -10 17 -2 41 -7 55 -10 14 -3 52 -8 85 -12 33
-3 71 -8 85 -10 34 -5 468 -14 855 -18 297 -3 325 -4 395 -25 68 -20 227 -93
240 -109 3 -4 23 -20 44 -36 22 -16 161 -152 310 -301 258 -258 351 -342 441
-395 22 -13 42 -27 45 -30 8 -10 178 -90 197 -93 10 -1 23 -5 28 -9 15 -9 144
-46 185 -53 19 -3 53 -9 75 -13 22 -4 490 -7 1040 -7 868 0 1094 4 1215 20 14
1 48 6 75 9 28 3 61 8 75 10 14 3 43 7 65 11 46 6 101 16 130 22 11 2 34 6 50
9 17 3 64 14 106 25 42 10 87 21 100 23 13 3 24 5 24 6 0 1 8 3 18 6 21 5 31
8 87 23 65 18 280 90 317 107 17 8 36 14 41 14 6 0 23 6 39 14 15 8 39 19 53
25 135 56 338 155 453 221 48 27 90 50 93 50 2 0 10 5 17 10 10 8 92 63 160
105 69 43 147 100 147 107 0 4 6 8 13 8 6 0 28 14 47 30 19 16 76 61 125 101
50 40 95 78 101 83 7 6 44 40 84 76 91 81 259 253 340 347 59 68 87 101 115
137 17 21 35 44 40 50 18 18 195 266 195 272 0 3 11 20 25 38 14 18 25 38 25
44 0 7 4 12 8 12 5 0 17 18 28 40 10 22 22 40 27 40 4 0 7 4 7 9 0 4 21 46 48
92 26 46 59 107 72 134 14 28 28 52 33 53 4 2 7 10 7 17 0 7 11 35 24 62 43
85 105 233 98 233 -4 0 -2 4 4 8 8 5 66 150 69 172 1 6 54 169 62 190 3 8 7
20 8 25 2 6 12 44 23 85 12 41 23 86 26 100 3 14 14 62 25 108 10 45 19 85 20
87 1 3 1 6 2 8 0 1 2 11 3 22 2 11 11 67 20 125 10 58 19 123 22 145 2 22 6
54 9 70 26 190 27 752 1 934 -3 18 -6 51 -8 73 -1 21 -6 42 -10 44 -5 3 -6 9
-3 14 3 5 -1 51 -10 102 -20 118 -20 114 -45 233 -12 55 -24 111 -26 125 -3
14 -8 32 -11 40 -3 8 -7 20 -8 26 -2 6 -11 38 -21 70 -9 33 -18 64 -19 69 -1
6 -3 13 -5 18 -1 4 -3 10 -4 15 -4 18 -70 210 -81 237 -33 79 -59 151 -57 158
1 4 -2 7 -6 7 -4 0 -14 17 -21 38 -16 44 -150 317 -187 382 -15 25 -45 77 -67
115 -22 39 -44 72 -49 73 -4 2 -8 8 -8 13 0 10 -131 208 -153 232 -7 7 -23 28
-37 47 -13 19 -28 40 -32 45 -4 6 -29 37 -55 70 -26 33 -51 65 -55 70 -46 58
-217 242 -299 321 -109 106 -129 124 -194 179 -88 74 -115 98 -136 118 -10 9
-23 17 -28 17 -5 0 -14 7 -21 15 -18 21 -219 165 -231 165 -5 0 -9 5 -9 10 0
6 -5 10 -10 10 -9 0 -65 35 -80 50 -3 3 -16 12 -30 19 -14 8 -61 36 -105 62
-113 68 -480 249 -503 249 -4 0 -18 6 -32 13 -14 7 -47 21 -75 31 -27 10 -59
22 -70 27 -50 22 -352 115 -435 133 -14 3 -65 15 -115 26 -49 11 -103 22 -120
25 -46 8 -136 23 -175 29 -19 3 -44 7 -55 10 -11 2 -60 7 -109 11 -50 4 -99
10 -110 13 -22 7 -4870 15 -4877 8z"/>
</g>
</svg>
