<svg width="52" height="30" viewBox="0 0 52 30" fill="none" xmlns="http://www.w3.org/2000/svg">
<g clip-path="url(#clip0_195_11)">
<path d="M12.3431 0C10.3124 0 8.36487 1.21005 6.92893 3.36396L2.24264 10.3934C0.8067 12.5473 0 15.4686 0 18.5147C0 24.8579 3.42809 30 7.65687 30C9.6876 30 11.6351 28.7899 13.0711 26.636L16.3126 21.7737C16.3127 21.7738 16.3126 21.7736 16.3126 21.7737L25.7573 7.6066C26.4431 6.57791 27.3733 6 28.3431 6C29.9669 6 31.3435 7.58741 31.8207 9.78407L34.8015 5.31296C33.4417 2.11834 31.0573 0 28.3431 0C26.3124 0 24.3649 1.21005 22.9289 3.36396L10.2427 22.3934C9.55687 23.4221 8.62673 24 7.65687 24C5.63723 24 4 21.5442 4 18.5147C4 17.0599 4.38527 15.6647 5.07107 14.636L9.75733 7.6066C10.4431 6.57791 11.3733 6 12.3431 6C13.9669 6 15.3435 7.58748 15.8207 9.78421L18.8015 5.31307C17.4417 2.1184 15.0574 0 12.3431 0Z" fill="white"/>
<path d="M26.2431 22.3934C25.5573 23.4221 24.6272 24 23.6573 24C22.0338 24 20.6573 22.413 20.1799 20.2167L17.1992 24.6877C18.5591 27.8819 20.9433 30 23.6573 30C25.688 30 27.6356 28.7899 29.0715 26.636L41.7577 7.6066C42.4436 6.57791 43.3737 6 44.3435 6C46.3632 6 48.0004 8.45584 48.0004 11.4853C48.0004 12.9401 47.6152 14.3353 46.9293 15.364L42.2431 22.3934C41.5573 23.4221 40.6271 24 39.6573 24C38.0336 24 36.6571 22.4127 36.1798 20.2162L33.1991 24.6873C34.5589 27.8818 36.9431 30 39.6573 30C41.688 30 43.6355 28.7899 45.0715 26.636L49.7577 19.6066C51.1937 17.4527 52.0004 14.5314 52.0004 11.4853C52.0004 5.14214 48.5723 0 44.3435 0C42.3128 0 40.3653 1.21005 38.9293 3.36396L26.2431 22.3934Z" fill="white"/>
</g>
<defs>
<clipPath id="clip0_195_11">
<rect width="52" height="30" fill="white"/>
</clipPath>
</defs>
</svg>
