<svg width="181" height="123" viewBox="0 0 181 123" fill="none" xmlns="http://www.w3.org/2000/svg">
<g clip-path="url(#clip0_387_2)">
<path d="M73.3333 99H84.6683L81.3684 95.6854C80.4933 94.8064 79.3063 94.3125 78.0687 94.3125H73.3333C55.292 94.3125 40.6667 79.6219 40.6667 61.5C40.6667 43.3781 55.292 28.6875 73.3333 28.6875H110.667C128.708 28.6875 143.333 43.3781 143.333 61.5C143.333 79.6219 128.708 94.3125 110.667 94.3125H96.701C94.8444 94.3125 93.064 93.5717 91.7512 92.2532L87.8853 88.3699C85.6974 86.1722 82.7298 84.9375 79.6356 84.9375H73.3333C60.4466 84.9375 50 74.4443 50 61.5C50 48.5557 60.4466 38.0625 73.3333 38.0625H110.667C123.553 38.0625 134 48.5557 134 61.5C134 74.4443 123.553 84.9375 110.667 84.9375H101.699C99.8428 84.9375 98.0624 84.1967 96.7495 82.8782L92.8835 78.9949C90.6956 76.7972 87.7281 75.5625 84.6339 75.5625H73.3333C65.6014 75.5625 59.3333 69.2664 59.3333 61.5C59.3333 53.7336 65.6014 47.4375 73.3333 47.4375H110.667C118.399 47.4375 124.667 53.7336 124.667 61.5C124.667 69.1717 118.551 75.4088 110.949 75.5597L110.947 75.5625H107.533C105.676 75.5625 103.896 74.8217 102.583 73.5032L98.7168 69.6199C96.9217 67.8165 94.6016 66.6617 92.1172 66.3052L92 66.1875H73.3333C70.756 66.1875 68.6667 64.0888 68.6667 61.5C68.6667 58.9112 70.756 56.8125 73.3333 56.8125H110.667C113.244 56.8125 115.333 58.9112 115.333 61.5C115.333 64.0888 113.244 66.1875 110.667 66.1875H101.333L104.633 69.5021C105.508 70.3811 106.695 70.875 107.933 70.875H110.667C115.821 70.875 120 66.6776 120 61.5C120 56.3224 115.821 52.125 110.667 52.125H73.3333C68.1787 52.125 64 56.3224 64 61.5C64 66.6776 68.1787 70.875 73.3333 70.875H90.4673C92.3239 70.875 94.1043 71.6158 95.4171 72.9343L99.2832 76.8176C101.471 79.0153 104.439 80.25 107.533 80.25H111.833V80.214C121.599 79.6091 129.333 71.4617 129.333 61.5C129.333 51.1448 120.976 42.75 110.667 42.75H73.3333C63.0241 42.75 54.6667 51.1448 54.6667 61.5C54.6667 71.8554 63.0241 80.25 73.3333 80.25H84.6339C86.4905 80.25 88.271 80.9908 89.5838 82.3093L93.4498 86.1926C95.6378 88.3903 98.6052 89.625 101.699 89.625H110.667C126.131 89.625 138.667 77.0331 138.667 61.5C138.667 45.9669 126.131 33.375 110.667 33.375H73.3333C57.8693 33.375 45.3333 45.9669 45.3333 61.5C45.3333 77.0331 57.8693 89.625 73.3333 89.625H79.6356C81.4922 89.625 83.2726 90.3658 84.5854 91.6843L88.4515 95.5676C90.6394 97.7653 93.6068 99 96.701 99H110.667C131.285 99 148 82.2107 148 61.5C148 40.7893 131.285 24 110.667 24L73.3333 24C52.7147 24 36 40.7893 36 61.5C36 82.2107 52.7147 99 73.3333 99Z" fill="url(#paint0_linear_387_2)"/>
</g>
<rect x="1" y="1" width="179" height="121" rx="19" stroke="url(#paint1_linear_387_2)" stroke-width="2"/>
<defs>
<linearGradient id="paint0_linear_387_2" x1="92" y1="24" x2="92" y2="99" gradientUnits="userSpaceOnUse">
<stop stop-color="#33FF00"/>
<stop offset="1" stop-color="#00E0FF"/>
</linearGradient>
<linearGradient id="paint1_linear_387_2" x1="90.5" y1="0" x2="90.5" y2="123" gradientUnits="userSpaceOnUse">
<stop stop-color="#00C2FF"/>
<stop offset="1" stop-color="#00FF75"/>
</linearGradient>
<clipPath id="clip0_387_2">
<rect width="112" height="75" fill="white" transform="translate(36 24)"/>
</clipPath>
</defs>
</svg>
