<svg width="161" height="108" viewBox="0 0 161 108" fill="none" xmlns="http://www.w3.org/2000/svg">
<path d="M53.6667 108H69.9607L65.2171 103.227C63.9591 101.961 62.2528 101.25 60.4737 101.25H53.6667C27.7323 101.25 6.70833 80.0955 6.70833 54C6.70833 27.9045 27.7323 6.75003 53.6667 6.75H107.333C133.268 6.75 154.292 27.9045 154.292 54C154.292 80.0955 133.268 101.25 107.333 101.25H87.2577C84.5889 101.25 82.0295 100.183 80.1423 98.2846L74.5851 92.6926C71.44 89.528 67.174 87.75 62.7261 87.75H53.6667C35.142 87.75 20.125 72.6397 20.125 54C20.125 35.3603 35.142 20.25 53.6667 20.25H107.333C125.858 20.25 140.875 35.3603 140.875 54C140.875 72.6397 125.858 87.75 107.333 87.75H94.4429C91.774 87.75 89.2147 86.6832 87.3275 84.7846L81.77 79.1926C78.6249 76.028 74.3592 74.25 69.9113 74.25H53.6667C42.552 74.25 33.5417 65.1837 33.5417 54C33.5417 42.8163 42.552 33.75 53.6667 33.75H107.333C118.448 33.75 127.458 42.8163 127.458 54C127.458 65.0473 118.666 74.0286 107.739 74.246L107.737 74.25H102.828C100.159 74.25 97.6001 73.1832 95.7129 71.2846L90.1554 65.6926C87.5749 63.0958 84.2398 61.4328 80.6685 60.9196L80.5 60.75H53.6667C49.9618 60.75 46.9583 57.7279 46.9583 54C46.9583 50.2721 49.9618 47.25 53.6667 47.25H107.333C111.038 47.25 114.042 50.2721 114.042 54C114.042 57.7279 111.038 60.75 107.333 60.75H93.9167L98.6603 65.5231C99.9182 66.7888 101.625 67.5 103.404 67.5H107.333C114.743 67.5 120.75 61.4558 120.75 54C120.75 46.5442 114.743 40.5 107.333 40.5H53.6667C46.2569 40.5 40.25 46.5442 40.25 54C40.25 61.4558 46.2569 67.5 53.6667 67.5H78.2967C80.9656 67.5 83.5249 68.5668 85.4121 70.4654L90.9696 76.0574C94.1147 79.222 98.3804 81 102.828 81H109.01V80.9482C123.049 80.0771 134.167 68.3448 134.167 54C134.167 39.0884 122.153 27 107.333 27H53.6667C38.8472 27 26.8333 39.0884 26.8333 54C26.8333 68.9118 38.8472 81 53.6667 81H69.9113C72.5801 81 75.1395 82.0668 77.0267 83.9654L82.5841 89.5574C85.7293 92.722 89.995 94.5 94.4429 94.5H107.333C129.563 94.5 147.583 76.3676 147.583 54C147.583 31.6324 129.563 13.5 107.333 13.5H53.6667C31.4371 13.5 13.4167 31.6324 13.4167 54C13.4167 76.3676 31.4371 94.5 53.6667 94.5H62.7261C65.395 94.5 67.9543 95.5668 69.8415 97.4654L75.399 103.057C78.5441 106.222 82.8098 108 87.2577 108H107.333C136.973 108 161 83.8234 161 54C161 24.1766 136.973 -2.60724e-06 107.333 0L53.6667 1.11581e-05C24.0274 1.37654e-05 -2.59115e-06 24.1766 0 54C2.59115e-06 83.8234 24.0274 108 53.6667 108Z" fill="url(#paint0_linear_195_16)"/>
<defs>
<linearGradient id="paint0_linear_195_16" x1="80.5" y1="0" x2="80.5" y2="108" gradientUnits="userSpaceOnUse">
<stop stop-color="#33FF00"/>
<stop offset="1" stop-color="#00E0FF"/>
</linearGradient>
</defs>
</svg>
